<svg viewBox="45 3 1440 570" fill="none" xmlns="http://www.w3.org/2000/svg">
<rect x="45" y="3" fill="url(#paint0_linear_98045_2)"/>
<g filter="url(#filter0_d_98045_2)">
<path d="M1484.5 410C1453.85 410 1429 434.624 1429 465H1484.5V410Z" fill="white"/>
</g>
<path d="M45 530.51C247.703 530.51 392.472 495.633 525.333 497.758C834.74 502.705 688.639 355.682 1005.67 355.682C1350.86 355.682 1268.24 226 1486 226" stroke="#5F82FF" stroke-width="3"/>
<path d="M525.333 497.758C392.472 495.633 247.703 530.51 45 530.51V573H1486V226C1268.24 226 1350.86 355.682 1005.67 355.682C688.639 355.682 834.74 502.705 525.333 497.758Z" fill="url(#paint1_linear_98045_2)" fill-opacity="0.4"/>
<line x1="969.5" y1="308" x2="969.5" y2="497" stroke="#D8E0F7"/>
<g filter="url(#filter1_d_98045_2)">
<circle cx="969.5" cy="356.5" r="7.5" fill="white"/>
<circle cx="969.5" cy="356.5" r="6.5" stroke="#5E80FE" stroke-width="2"/>
</g>
<line x1="1377.5" y1="108" x2="1377.5" y2="425" stroke="#D8E0F7"/>
<g filter="url(#filter2_d_98045_2)">
<circle cx="1377.5" cy="242.5" r="7.5" fill="white"/>
<circle cx="1377.5" cy="242.5" r="6.5" stroke="#5E80FE" stroke-width="2"/>
</g>
<line x1="560.5" y1="486" x2="560.5" y2="545" stroke="#D8E0F7"/>
<line x1="152.5" y1="370" x2="152.5" y2="560" stroke="#D8E0F7"/>
<g filter="url(#filter3_d_98045_2)">
<circle cx="152.5" cy="527.5" r="7.5" fill="white"/>
<circle cx="152.5" cy="527.5" r="6.5" stroke="#5E80FE" stroke-width="2"/>
</g>
<g filter="url(#filter4_d_98045_2)">
<path d="M309.72 401.48C303.247 401.48 298 406.83 298 413.429H321.441C321.441 406.83 316.194 401.48 309.72 401.48Z" fill="white"/>
</g>
<g filter="url(#filter5_d_98045_2)">
<path d="M355.683 407.455C346.671 407.455 339.366 414.862 339.366 424H372C372 414.862 364.694 407.455 355.683 407.455Z" fill="white"/>
</g>
<g filter="url(#filter6_d_98045_2)">
<path d="M331.093 399.182C317.386 399.182 306.273 410.293 306.273 424H355.913C355.913 410.293 344.801 399.182 331.093 399.182Z" fill="white"/>
</g>
<g filter="url(#filter7_d_98045_2)">
<path d="M1250.01 497.459C1231.23 497.459 1216 512.924 1216 532H1284.02C1284.02 512.924 1268.79 497.459 1250.01 497.459Z" fill="white"/>
</g>
<g filter="url(#filter8_d_98045_2)">
<path d="M1226.68 468C1213.6 468 1203 478.781 1203 492.081H1250.37C1250.37 478.781 1239.76 468 1226.68 468Z" fill="white"/>
</g>
<g filter="url(#filter9_d_98045_2)">
<path d="M1181.73 480.189C1153.16 480.189 1130 503.386 1130 532H1233.47C1233.47 503.386 1210.31 480.189 1181.73 480.189Z" fill="white"/>
</g>
<g filter="url(#filter10_d_98045_2)">
<path d="M1307.91 56C1286.42 56 1269 73.4609 1269 95H1346.81C1346.81 73.4609 1329.39 56 1307.91 56Z" fill="white"/>
</g>
<g filter="url(#filter11_d_98045_2)">
<path d="M1324.5 89C1312.07 89 1302 99.2975 1302 112H1347C1347 99.2975 1336.93 89 1324.5 89Z" fill="white"/>
</g>
<g filter="url(#filter12_d_98045_2)">
<path d="M320.5 95C308.074 95 298 105.297 298 118H343C343 105.297 332.926 95 320.5 95Z" fill="white"/>
</g>
<g filter="url(#filter13_d_98045_2)">
<path d="M120 255C120 213.026 86.6452 179 45.5 179V255H120Z" fill="white"/>
</g>
<g filter="url(#filter14_d_98045_2)">
<path d="M362.112 389C356.651 389 352.224 393.559 352.224 399.182H372C372 393.559 367.573 389 362.112 389Z" fill="white"/>
</g>
<g filter="url(#filter15_d_98045_2)">
<path d="M1268.5 40C1259.94 40 1253 47.1634 1253 56H1284C1284 47.1634 1277.06 40 1268.5 40Z" fill="white"/>
</g>
<g filter="url(#filter16_d_98045_2)">
<circle cx="560.5" cy="497.5" r="7.5" fill="white"/>
<circle cx="560.5" cy="497.5" r="6.5" stroke="#5E80FE" stroke-width="2"/>
</g>
<g filter="url(#filter17_d_98045_2)">
<mask id="path-29-inside-1_98045_2" fill="white">
<path fill-rule="evenodd" clip-rule="evenodd" d="M607 411C607 409.343 605.657 408 604 408H518C516.343 408 515 409.343 515 411V468.26C515 469.917 516.343 471.26 518 471.26H554.669C555.665 471.26 556.596 471.754 557.154 472.579L558.515 474.591C559.705 476.35 562.295 476.35 563.485 474.591L564.846 472.579C565.404 471.754 566.335 471.26 567.331 471.26H604C605.657 471.26 607 469.917 607 468.26V411Z"/>
</mask>
<path fill-rule="evenodd" clip-rule="evenodd" d="M607 411C607 409.343 605.657 408 604 408H518C516.343 408 515 409.343 515 411V468.26C515 469.917 516.343 471.26 518 471.26H554.669C555.665 471.26 556.596 471.754 557.154 472.579L558.515 474.591C559.705 476.35 562.295 476.35 563.485 474.591L564.846 472.579C565.404 471.754 566.335 471.26 567.331 471.26H604C605.657 471.26 607 469.917 607 468.26V411Z" fill="white"/>
<path d="M564.846 472.579L564.017 472.019L564.846 472.579ZM558.515 474.591L559.343 474.031L558.515 474.591ZM563.485 474.591L564.313 475.151L563.485 474.591ZM518 409H604V407H518V409ZM516 468.26V411H514V468.26H516ZM554.669 470.26H518V472.26H554.669V470.26ZM559.343 474.031L557.983 472.019L556.326 473.14L557.687 475.151L559.343 474.031ZM564.017 472.019L562.657 474.031L564.313 475.151L565.674 473.14L564.017 472.019ZM604 470.26H567.331V472.26H604V470.26ZM606 411V468.26H608V411H606ZM604 472.26C606.209 472.26 608 470.469 608 468.26H606C606 469.365 605.105 470.26 604 470.26V472.26ZM565.674 473.14C566.046 472.59 566.667 472.26 567.331 472.26V470.26C566.003 470.26 564.761 470.919 564.017 472.019L565.674 473.14ZM557.687 475.151C559.273 477.497 562.727 477.497 564.313 475.151L562.657 474.031C561.863 475.204 560.136 475.204 559.343 474.031L557.687 475.151ZM554.669 472.26C555.333 472.26 555.954 472.59 556.326 473.14L557.983 472.019C557.239 470.919 555.997 470.26 554.669 470.26V472.26ZM514 468.26C514 470.469 515.791 472.26 518 472.26V470.26C516.895 470.26 516 469.365 516 468.26H514ZM604 409C605.105 409 606 409.895 606 411H608C608 408.791 606.209 407 604 407V409ZM518 407C515.791 407 514 408.791 514 411H516C516 409.895 516.895 409 518 409V407Z" fill="#D8E0F7" mask="url(#path-29-inside-1_98045_2)"/>
<path d="M544 441.25C544 431.723 551.668 424 561.128 424C562.871 424 564.554 424.262 566.139 424.75" stroke="#5F82FF" stroke-width="4" stroke-linecap="round" stroke-linejoin="round"/>
<path fill-rule="evenodd" clip-rule="evenodd" d="M557.441 444.962C559.477 447.013 562.778 447.013 564.813 444.962C566.849 442.912 575.276 428.5 574.531 427.75C573.787 427 559.477 435.487 557.441 437.538C555.406 439.588 555.406 442.912 557.441 444.962ZM561.127 442.75C561.95 442.75 562.617 442.078 562.617 441.25C562.617 440.422 561.95 439.75 561.127 439.75C560.305 439.75 559.638 440.422 559.638 441.25C559.638 442.078 560.305 442.75 561.127 442.75Z" fill="#5F82FF"/>
<ellipse cx="546.234" cy="450.25" rx="1.48936" ry="1.5" fill="#5F82FF"/>
<ellipse cx="552.192" cy="456.25" rx="1.48936" ry="1.5" fill="#5F82FF"/>
<ellipse cx="561.128" cy="458.5" rx="1.48936" ry="1.5" fill="#5F82FF"/>
<ellipse cx="570.064" cy="456.25" rx="1.48936" ry="1.5" fill="#5F82FF"/>
<ellipse cx="575.276" cy="450.25" rx="1.48936" ry="1.5" fill="#5F82FF"/>
<ellipse cx="577.51" cy="441.25" rx="1.48936" ry="1.5" fill="#5F82FF"/>
</g>
<defs>
<filter id="filter0_d_98045_2" x="1384" y="370" width="145.5" height="145" filterUnits="userSpaceOnUse" color-interpolation-filters="sRGB">
<feFlood flood-opacity="0" result="BackgroundImageFix"/>
<feColorMatrix in="SourceAlpha" type="matrix" values="0 0 0 0 0 0 0 0 0 0 0 0 0 0 0 0 0 0 127 0" result="hardAlpha"/>
<feOffset dy="5"/>
<feGaussianBlur stdDeviation="22.5"/>
<feColorMatrix type="matrix" values="0 0 0 0 0.593724 0 0 0 0 0.684469 0 0 0 0 0.888646 0 0 0 0.1 0"/>
<feBlend mode="normal" in2="BackgroundImageFix" result="effect1_dropShadow_98045_2"/>
<feBlend mode="normal" in="SourceGraphic" in2="effect1_dropShadow_98045_2" result="shape"/>
</filter>
<filter id="filter1_d_98045_2" x="947" y="334" width="45" height="45" filterUnits="userSpaceOnUse" color-interpolation-filters="sRGB">
<feFlood flood-opacity="0" result="BackgroundImageFix"/>
<feColorMatrix in="SourceAlpha" type="matrix" values="0 0 0 0 0 0 0 0 0 0 0 0 0 0 0 0 0 0 127 0" result="hardAlpha"/>
<feOffset/>
<feGaussianBlur stdDeviation="7.5"/>
<feColorMatrix type="matrix" values="0 0 0 0 0.323144 0 0 0 0 0.512664 0 0 0 0 1 0 0 0 0.25 0"/>
<feBlend mode="normal" in2="BackgroundImageFix" result="effect1_dropShadow_98045_2"/>
<feBlend mode="normal" in="SourceGraphic" in2="effect1_dropShadow_98045_2" result="shape"/>
</filter>
<filter id="filter2_d_98045_2" x="1355" y="220" width="45" height="45" filterUnits="userSpaceOnUse" color-interpolation-filters="sRGB">
<feFlood flood-opacity="0" result="BackgroundImageFix"/>
<feColorMatrix in="SourceAlpha" type="matrix" values="0 0 0 0 0 0 0 0 0 0 0 0 0 0 0 0 0 0 127 0" result="hardAlpha"/>
<feOffset/>
<feGaussianBlur stdDeviation="7.5"/>
<feColorMatrix type="matrix" values="0 0 0 0 0.323144 0 0 0 0 0.512664 0 0 0 0 1 0 0 0 0.25 0"/>
<feBlend mode="normal" in2="BackgroundImageFix" result="effect1_dropShadow_98045_2"/>
<feBlend mode="normal" in="SourceGraphic" in2="effect1_dropShadow_98045_2" result="shape"/>
</filter>
<filter id="filter3_d_98045_2" x="130" y="505" width="45" height="45" filterUnits="userSpaceOnUse" color-interpolation-filters="sRGB">
<feFlood flood-opacity="0" result="BackgroundImageFix"/>
<feColorMatrix in="SourceAlpha" type="matrix" values="0 0 0 0 0 0 0 0 0 0 0 0 0 0 0 0 0 0 127 0" result="hardAlpha"/>
<feOffset/>
<feGaussianBlur stdDeviation="7.5"/>
<feColorMatrix type="matrix" values="0 0 0 0 0.323144 0 0 0 0 0.512664 0 0 0 0 1 0 0 0 0.25 0"/>
<feBlend mode="normal" in2="BackgroundImageFix" result="effect1_dropShadow_98045_2"/>
<feBlend mode="normal" in="SourceGraphic" in2="effect1_dropShadow_98045_2" result="shape"/>
</filter>
<filter id="filter4_d_98045_2" x="253" y="361.48" width="113.441" height="101.949" filterUnits="userSpaceOnUse" color-interpolation-filters="sRGB">
<feFlood flood-opacity="0" result="BackgroundImageFix"/>
<feColorMatrix in="SourceAlpha" type="matrix" values="0 0 0 0 0 0 0 0 0 0 0 0 0 0 0 0 0 0 127 0" result="hardAlpha"/>
<feOffset dy="5"/>
<feGaussianBlur stdDeviation="22.5"/>
<feColorMatrix type="matrix" values="0 0 0 0 0.593724 0 0 0 0 0.684469 0 0 0 0 0.888646 0 0 0 0.1 0"/>
<feBlend mode="normal" in2="BackgroundImageFix" result="effect1_dropShadow_98045_2"/>
<feBlend mode="normal" in="SourceGraphic" in2="effect1_dropShadow_98045_2" result="shape"/>
</filter>
<filter id="filter5_d_98045_2" x="294.366" y="367.455" width="122.633" height="106.545" filterUnits="userSpaceOnUse" color-interpolation-filters="sRGB">
<feFlood flood-opacity="0" result="BackgroundImageFix"/>
<feColorMatrix in="SourceAlpha" type="matrix" values="0 0 0 0 0 0 0 0 0 0 0 0 0 0 0 0 0 0 127 0" result="hardAlpha"/>
<feOffset dy="5"/>
<feGaussianBlur stdDeviation="22.5"/>
<feColorMatrix type="matrix" values="0 0 0 0 0.593724 0 0 0 0 0.684469 0 0 0 0 0.888646 0 0 0 0.1 0"/>
<feBlend mode="normal" in2="BackgroundImageFix" result="effect1_dropShadow_98045_2"/>
<feBlend mode="normal" in="SourceGraphic" in2="effect1_dropShadow_98045_2" result="shape"/>
</filter>
<filter id="filter6_d_98045_2" x="261.273" y="359.182" width="139.64" height="114.818" filterUnits="userSpaceOnUse" color-interpolation-filters="sRGB">
<feFlood flood-opacity="0" result="BackgroundImageFix"/>
<feColorMatrix in="SourceAlpha" type="matrix" values="0 0 0 0 0 0 0 0 0 0 0 0 0 0 0 0 0 0 127 0" result="hardAlpha"/>
<feOffset dy="5"/>
<feGaussianBlur stdDeviation="22.5"/>
<feColorMatrix type="matrix" values="0 0 0 0 0.593724 0 0 0 0 0.684469 0 0 0 0 0.888646 0 0 0 0.1 0"/>
<feBlend mode="normal" in2="BackgroundImageFix" result="effect1_dropShadow_98045_2"/>
<feBlend mode="normal" in="SourceGraphic" in2="effect1_dropShadow_98045_2" result="shape"/>
</filter>
<filter id="filter7_d_98045_2" x="1171" y="457.459" width="158.021" height="124.541" filterUnits="userSpaceOnUse" color-interpolation-filters="sRGB">
<feFlood flood-opacity="0" result="BackgroundImageFix"/>
<feColorMatrix in="SourceAlpha" type="matrix" values="0 0 0 0 0 0 0 0 0 0 0 0 0 0 0 0 0 0 127 0" result="hardAlpha"/>
<feOffset dy="5"/>
<feGaussianBlur stdDeviation="22.5"/>
<feColorMatrix type="matrix" values="0 0 0 0 0.593724 0 0 0 0 0.684469 0 0 0 0 0.888646 0 0 0 0.1 0"/>
<feBlend mode="normal" in2="BackgroundImageFix" result="effect1_dropShadow_98045_2"/>
<feBlend mode="normal" in="SourceGraphic" in2="effect1_dropShadow_98045_2" result="shape"/>
</filter>
<filter id="filter8_d_98045_2" x="1158" y="428" width="137.367" height="114.081" filterUnits="userSpaceOnUse" color-interpolation-filters="sRGB">
<feFlood flood-opacity="0" result="BackgroundImageFix"/>
<feColorMatrix in="SourceAlpha" type="matrix" values="0 0 0 0 0 0 0 0 0 0 0 0 0 0 0 0 0 0 127 0" result="hardAlpha"/>
<feOffset dy="5"/>
<feGaussianBlur stdDeviation="22.5"/>
<feColorMatrix type="matrix" values="0 0 0 0 0.593724 0 0 0 0 0.684469 0 0 0 0 0.888646 0 0 0 0.1 0"/>
<feBlend mode="normal" in2="BackgroundImageFix" result="effect1_dropShadow_98045_2"/>
<feBlend mode="normal" in="SourceGraphic" in2="effect1_dropShadow_98045_2" result="shape"/>
</filter>
<filter id="filter9_d_98045_2" x="1085" y="440.189" width="193.469" height="141.811" filterUnits="userSpaceOnUse" color-interpolation-filters="sRGB">
<feFlood flood-opacity="0" result="BackgroundImageFix"/>
<feColorMatrix in="SourceAlpha" type="matrix" values="0 0 0 0 0 0 0 0 0 0 0 0 0 0 0 0 0 0 127 0" result="hardAlpha"/>
<feOffset dy="5"/>
<feGaussianBlur stdDeviation="22.5"/>
<feColorMatrix type="matrix" values="0 0 0 0 0.593724 0 0 0 0 0.684469 0 0 0 0 0.888646 0 0 0 0.1 0"/>
<feBlend mode="normal" in2="BackgroundImageFix" result="effect1_dropShadow_98045_2"/>
<feBlend mode="normal" in="SourceGraphic" in2="effect1_dropShadow_98045_2" result="shape"/>
</filter>
<filter id="filter10_d_98045_2" x="1224" y="16" width="167.813" height="129" filterUnits="userSpaceOnUse" color-interpolation-filters="sRGB">
<feFlood flood-opacity="0" result="BackgroundImageFix"/>
<feColorMatrix in="SourceAlpha" type="matrix" values="0 0 0 0 0 0 0 0 0 0 0 0 0 0 0 0 0 0 127 0" result="hardAlpha"/>
<feOffset dy="5"/>
<feGaussianBlur stdDeviation="22.5"/>
<feColorMatrix type="matrix" values="0 0 0 0 0.593724 0 0 0 0 0.684469 0 0 0 0 0.888646 0 0 0 0.1 0"/>
<feBlend mode="normal" in2="BackgroundImageFix" result="effect1_dropShadow_98045_2"/>
<feBlend mode="normal" in="SourceGraphic" in2="effect1_dropShadow_98045_2" result="shape"/>
</filter>
<filter id="filter11_d_98045_2" x="1257" y="49" width="135" height="113" filterUnits="userSpaceOnUse" color-interpolation-filters="sRGB">
<feFlood flood-opacity="0" result="BackgroundImageFix"/>
<feColorMatrix in="SourceAlpha" type="matrix" values="0 0 0 0 0 0 0 0 0 0 0 0 0 0 0 0 0 0 127 0" result="hardAlpha"/>
<feOffset dy="5"/>
<feGaussianBlur stdDeviation="22.5"/>
<feColorMatrix type="matrix" values="0 0 0 0 0.593724 0 0 0 0 0.684469 0 0 0 0 0.888646 0 0 0 0.1 0"/>
<feBlend mode="normal" in2="BackgroundImageFix" result="effect1_dropShadow_98045_2"/>
<feBlend mode="normal" in="SourceGraphic" in2="effect1_dropShadow_98045_2" result="shape"/>
</filter>
<filter id="filter12_d_98045_2" x="253" y="55" width="135" height="113" filterUnits="userSpaceOnUse" color-interpolation-filters="sRGB">
<feFlood flood-opacity="0" result="BackgroundImageFix"/>
<feColorMatrix in="SourceAlpha" type="matrix" values="0 0 0 0 0 0 0 0 0 0 0 0 0 0 0 0 0 0 127 0" result="hardAlpha"/>
<feOffset dy="5"/>
<feGaussianBlur stdDeviation="22.5"/>
<feColorMatrix type="matrix" values="0 0 0 0 0.593724 0 0 0 0 0.684469 0 0 0 0 0.888646 0 0 0 0.1 0"/>
<feBlend mode="normal" in2="BackgroundImageFix" result="effect1_dropShadow_98045_2"/>
<feBlend mode="normal" in="SourceGraphic" in2="effect1_dropShadow_98045_2" result="shape"/>
</filter>
<filter id="filter13_d_98045_2" x="0.5" y="139" width="164.5" height="166" filterUnits="userSpaceOnUse" color-interpolation-filters="sRGB">
<feFlood flood-opacity="0" result="BackgroundImageFix"/>
<feColorMatrix in="SourceAlpha" type="matrix" values="0 0 0 0 0 0 0 0 0 0 0 0 0 0 0 0 0 0 127 0" result="hardAlpha"/>
<feOffset dy="5"/>
<feGaussianBlur stdDeviation="22.5"/>
<feColorMatrix type="matrix" values="0 0 0 0 0.593724 0 0 0 0 0.684469 0 0 0 0 0.888646 0 0 0 0.1 0"/>
<feBlend mode="normal" in2="BackgroundImageFix" result="effect1_dropShadow_98045_2"/>
<feBlend mode="normal" in="SourceGraphic" in2="effect1_dropShadow_98045_2" result="shape"/>
</filter>
<filter id="filter14_d_98045_2" x="307.224" y="349" width="109.776" height="100.182" filterUnits="userSpaceOnUse" color-interpolation-filters="sRGB">
<feFlood flood-opacity="0" result="BackgroundImageFix"/>
<feColorMatrix in="SourceAlpha" type="matrix" values="0 0 0 0 0 0 0 0 0 0 0 0 0 0 0 0 0 0 127 0" result="hardAlpha"/>
<feOffset dy="5"/>
<feGaussianBlur stdDeviation="22.5"/>
<feColorMatrix type="matrix" values="0 0 0 0 0.593724 0 0 0 0 0.684469 0 0 0 0 0.888646 0 0 0 0.1 0"/>
<feBlend mode="normal" in2="BackgroundImageFix" result="effect1_dropShadow_98045_2"/>
<feBlend mode="normal" in="SourceGraphic" in2="effect1_dropShadow_98045_2" result="shape"/>
</filter>
<filter id="filter15_d_98045_2" x="1208" y="0" width="121" height="106" filterUnits="userSpaceOnUse" color-interpolation-filters="sRGB">
<feFlood flood-opacity="0" result="BackgroundImageFix"/>
<feColorMatrix in="SourceAlpha" type="matrix" values="0 0 0 0 0 0 0 0 0 0 0 0 0 0 0 0 0 0 127 0" result="hardAlpha"/>
<feOffset dy="5"/>
<feGaussianBlur stdDeviation="22.5"/>
<feColorMatrix type="matrix" values="0 0 0 0 0.593724 0 0 0 0 0.684469 0 0 0 0 0.888646 0 0 0 0.1 0"/>
<feBlend mode="normal" in2="BackgroundImageFix" result="effect1_dropShadow_98045_2"/>
<feBlend mode="normal" in="SourceGraphic" in2="effect1_dropShadow_98045_2" result="shape"/>
</filter>
<filter id="filter16_d_98045_2" x="538" y="475" width="45" height="45" filterUnits="userSpaceOnUse" color-interpolation-filters="sRGB">
<feFlood flood-opacity="0" result="BackgroundImageFix"/>
<feColorMatrix in="SourceAlpha" type="matrix" values="0 0 0 0 0 0 0 0 0 0 0 0 0 0 0 0 0 0 127 0" result="hardAlpha"/>
<feOffset/>
<feGaussianBlur stdDeviation="7.5"/>
<feColorMatrix type="matrix" values="0 0 0 0 0.323144 0 0 0 0 0.512664 0 0 0 0 1 0 0 0 0.25 0"/>
<feBlend mode="normal" in2="BackgroundImageFix" result="effect1_dropShadow_98045_2"/>
<feBlend mode="normal" in="SourceGraphic" in2="effect1_dropShadow_98045_2" result="shape"/>
</filter>
<filter id="filter17_d_98045_2" x="485" y="388" width="152" height="127.911" filterUnits="userSpaceOnUse" color-interpolation-filters="sRGB">
<feFlood flood-opacity="0" result="BackgroundImageFix"/>
<feColorMatrix in="SourceAlpha" type="matrix" values="0 0 0 0 0 0 0 0 0 0 0 0 0 0 0 0 0 0 127 0" result="hardAlpha"/>
<feOffset dy="10"/>
<feGaussianBlur stdDeviation="15"/>
<feColorMatrix type="matrix" values="0 0 0 0 0.894415 0 0 0 0 0.918495 0 0 0 0 0.984716 0 0 0 1 0"/>
<feBlend mode="normal" in2="BackgroundImageFix" result="effect1_dropShadow_98045_2"/>
<feBlend mode="normal" in="SourceGraphic" in2="effect1_dropShadow_98045_2" result="shape"/>
</filter>
<linearGradient id="paint0_linear_98045_2" x1="765" y1="3" x2="765" y2="573" gradientUnits="userSpaceOnUse">
<stop stop-color="#F4F7FF"/>
<stop offset="1" stop-color="#F1F5FF"/>
</linearGradient>
<linearGradient id="paint1_linear_98045_2" x1="323.466" y1="573.443" x2="323.466" y2="118.005" gradientUnits="userSpaceOnUse">
<stop stop-color="#4B71FF" stop-opacity="0"/>
<stop offset="1" stop-color="#6B89F8"/>
</linearGradient>
</defs>
</svg>
