<svg width="1440" height="582" viewBox="0 0 1440 582" fill="none" xmlns="http://www.w3.org/2000/svg">
<rect y="3" width="1440" height="570" fill="url(#paint0_linear_9_326)"/>
<path d="M0 530.51C202.703 530.51 347.472 495.633 480.333 497.758C789.74 502.705 643.639 355.682 960.667 355.682C1305.86 355.682 1223.24 226 1441 226" stroke="#5F82FF" stroke-width="3"/>
<path d="M480.333 497.758C347.472 495.633 202.703 530.51 0 530.51V573H1441V226C1223.24 226 1305.86 355.682 960.667 355.682C643.639 355.682 789.74 502.705 480.333 497.758Z" fill="url(#paint1_linear_9_326)" fill-opacity="0.4"/>
<line x1="924.5" y1="308" x2="924.5" y2="497" stroke="#D8E0F7"/>
<g filter="url(#filter0_d_9_326)">
<circle cx="924.5" cy="356.5" r="7.5" fill="white"/>
<circle cx="924.5" cy="356.5" r="6.5" stroke="#5E80FE" stroke-width="2"/>
</g>
<line x1="1332.5" y1="108" x2="1332.5" y2="425" stroke="#D8E0F7"/>
<g filter="url(#filter1_d_9_326)">
<circle cx="1332.5" cy="242.5" r="7.5" fill="white"/>
<circle cx="1332.5" cy="242.5" r="6.5" stroke="#5E80FE" stroke-width="2"/>
</g>
<line x1="515.5" y1="486" x2="515.5" y2="545" stroke="#D8E0F7"/>
<line x1="107.5" y1="370" x2="107.5" y2="560" stroke="#D8E0F7"/>
<g filter="url(#filter2_d_9_326)">
<circle cx="107.5" cy="527.5" r="7.5" fill="white"/>
<circle cx="107.5" cy="527.5" r="6.5" stroke="#5E80FE" stroke-width="2"/>
</g>
<g filter="url(#filter3_d_9_326)">
<path fill-rule="evenodd" clip-rule="evenodd" d="M253 118C253 105.297 263.074 95 275.5 95C287.926 95 298 105.297 298 118H253ZM286.093 399.182C280.713 399.182 275.732 400.894 271.666 403.803C269.722 402.343 267.32 401.48 264.72 401.48C258.247 401.48 253 406.83 253 413.429H263.631C262.119 416.636 261.273 420.219 261.273 424H294.366H310.913H327C327 414.862 319.695 407.455 310.683 407.455C308.82 407.455 307.029 407.771 305.361 408.355C300.81 402.758 293.87 399.182 286.093 399.182ZM75 255C75 213.026 41.6452 179 0.5 179V255H75ZM307.224 399.182C307.224 393.559 311.651 389 317.112 389C322.573 389 327 393.559 327 399.182H307.224Z" fill="white"/>
</g>
<g filter="url(#filter4_d_9_326)">
<path fill-rule="evenodd" clip-rule="evenodd" d="M1223.5 40C1214.94 40 1208 47.1634 1208 56H1239C1239 47.1634 1232.06 40 1223.5 40ZM1262.91 56C1241.42 56 1224 73.4609 1224 95H1264.34C1259.83 99.2064 1257 105.265 1257 112H1302C1302 105.265 1299.17 99.2064 1294.66 95H1301.81C1301.81 73.4609 1284.39 56 1262.91 56ZM1169.72 492.081C1174.61 496.143 1178.75 501.09 1181.88 506.678C1187.95 500.957 1196.08 497.459 1205.01 497.459C1223.79 497.459 1239.02 512.924 1239.02 532L1188.47 532L1171 532L1085 532C1085 503.386 1108.16 480.189 1136.73 480.189C1144.7 480.189 1152.24 481.991 1158.98 485.209C1161.89 475.258 1170.95 468 1181.68 468C1194.76 468 1205.37 478.781 1205.37 492.081H1169.72ZM1384 465C1384 434.624 1408.85 410 1439.5 410V465H1384Z" fill="white"/>
</g>
<line y1="3.5" x2="1440" y2="3.5" stroke="#D8E3FE"/>
<g filter="url(#filter5_d_9_326)">
<circle cx="515.5" cy="497.5" r="7.5" fill="white"/>
<circle cx="515.5" cy="497.5" r="6.5" stroke="#5E80FE" stroke-width="2"/>
</g>
<g filter="url(#filter6_d_9_326)">
<mask id="path-19-inside-1_9_326" fill="white">
<path fill-rule="evenodd" clip-rule="evenodd" d="M562 411C562 409.343 560.657 408 559 408H473C471.343 408 470 409.343 470 411V468.26C470 469.917 471.343 471.26 473 471.26H509.669C510.665 471.26 511.596 471.754 512.154 472.579L513.515 474.591C514.705 476.35 517.295 476.35 518.485 474.591L519.846 472.579C520.404 471.754 521.335 471.26 522.331 471.26H559C560.657 471.26 562 469.917 562 468.26V411Z"/>
</mask>
<path fill-rule="evenodd" clip-rule="evenodd" d="M562 411C562 409.343 560.657 408 559 408H473C471.343 408 470 409.343 470 411V468.26C470 469.917 471.343 471.26 473 471.26H509.669C510.665 471.26 511.596 471.754 512.154 472.579L513.515 474.591C514.705 476.35 517.295 476.35 518.485 474.591L519.846 472.579C520.404 471.754 521.335 471.26 522.331 471.26H559C560.657 471.26 562 469.917 562 468.26V411Z" fill="white"/>
<path d="M519.846 472.579L519.017 472.019L519.846 472.579ZM513.515 474.591L514.343 474.031L513.515 474.591ZM512.154 472.579L511.326 473.14L512.154 472.579ZM473 409H559V407H473V409ZM471 468.26V411H469V468.26H471ZM509.669 470.26H473V472.26H509.669V470.26ZM514.343 474.031L512.983 472.019L511.326 473.14L512.687 475.151L514.343 474.031ZM519.017 472.019L517.657 474.031L519.313 475.151L520.674 473.14L519.017 472.019ZM559 470.26H522.331V472.26H559V470.26ZM561 411V468.26H563V411H561ZM559 472.26C561.209 472.26 563 470.469 563 468.26H561C561 469.365 560.105 470.26 559 470.26V472.26ZM520.674 473.14C521.046 472.59 521.667 472.26 522.331 472.26V470.26C521.003 470.26 519.761 470.919 519.017 472.019L520.674 473.14ZM512.687 475.151C514.273 477.497 517.727 477.497 519.313 475.151L517.657 474.031C516.864 475.204 515.136 475.204 514.343 474.031L512.687 475.151ZM509.669 472.26C510.333 472.26 510.954 472.59 511.326 473.14L512.983 472.019C512.239 470.919 510.997 470.26 509.669 470.26V472.26ZM469 468.26C469 470.469 470.791 472.26 473 472.26V470.26C471.895 470.26 471 469.365 471 468.26H469ZM559 409C560.105 409 561 409.895 561 411H563C563 408.791 561.209 407 559 407V409ZM473 407C470.791 407 469 408.791 469 411H471C471 409.895 471.895 409 473 409V407Z" fill="#D8E0F7" mask="url(#path-19-inside-1_9_326)"/>
<path d="M499 441.25C499 431.723 506.668 424 516.128 424C517.871 424 519.554 424.262 521.139 424.75" stroke="#5F82FF" stroke-width="4" stroke-linecap="round" stroke-linejoin="round"/>
<path fill-rule="evenodd" clip-rule="evenodd" d="M512.442 444.962C514.477 447.013 517.778 447.013 519.814 444.962C521.849 442.912 530.276 428.5 529.532 427.75C528.787 427 514.477 435.487 512.442 437.538C510.406 439.588 510.406 442.912 512.442 444.962ZM516.128 442.75C516.95 442.75 517.617 442.078 517.617 441.25C517.617 440.422 516.95 439.75 516.128 439.75C515.305 439.75 514.638 440.422 514.638 441.25C514.638 442.078 515.305 442.75 516.128 442.75Z" fill="#5F82FF"/>
<ellipse cx="501.234" cy="450.25" rx="1.48936" ry="1.5" fill="#5F82FF"/>
<ellipse cx="507.191" cy="456.25" rx="1.48936" ry="1.5" fill="#5F82FF"/>
<ellipse cx="516.128" cy="458.5" rx="1.48936" ry="1.5" fill="#5F82FF"/>
<ellipse cx="525.064" cy="456.25" rx="1.48936" ry="1.5" fill="#5F82FF"/>
<ellipse cx="530.277" cy="450.25" rx="1.48936" ry="1.5" fill="#5F82FF"/>
<ellipse cx="532.511" cy="441.25" rx="1.48936" ry="1.5" fill="#5F82FF"/>
</g>
<defs>
<filter id="filter0_d_9_326" x="902" y="334" width="45" height="45" filterUnits="userSpaceOnUse" color-interpolation-filters="sRGB">
<feFlood flood-opacity="0" result="BackgroundImageFix"/>
<feColorMatrix in="SourceAlpha" type="matrix" values="0 0 0 0 0 0 0 0 0 0 0 0 0 0 0 0 0 0 127 0" result="hardAlpha"/>
<feOffset/>
<feGaussianBlur stdDeviation="7.5"/>
<feColorMatrix type="matrix" values="0 0 0 0 0.323144 0 0 0 0 0.512664 0 0 0 0 1 0 0 0 0.25 0"/>
<feBlend mode="normal" in2="BackgroundImageFix" result="effect1_dropShadow_9_326"/>
<feBlend mode="normal" in="SourceGraphic" in2="effect1_dropShadow_9_326" result="shape"/>
</filter>
<filter id="filter1_d_9_326" x="1310" y="220" width="45" height="45" filterUnits="userSpaceOnUse" color-interpolation-filters="sRGB">
<feFlood flood-opacity="0" result="BackgroundImageFix"/>
<feColorMatrix in="SourceAlpha" type="matrix" values="0 0 0 0 0 0 0 0 0 0 0 0 0 0 0 0 0 0 127 0" result="hardAlpha"/>
<feOffset/>
<feGaussianBlur stdDeviation="7.5"/>
<feColorMatrix type="matrix" values="0 0 0 0 0.323144 0 0 0 0 0.512664 0 0 0 0 1 0 0 0 0.25 0"/>
<feBlend mode="normal" in2="BackgroundImageFix" result="effect1_dropShadow_9_326"/>
<feBlend mode="normal" in="SourceGraphic" in2="effect1_dropShadow_9_326" result="shape"/>
</filter>
<filter id="filter2_d_9_326" x="85" y="505" width="45" height="45" filterUnits="userSpaceOnUse" color-interpolation-filters="sRGB">
<feFlood flood-opacity="0" result="BackgroundImageFix"/>
<feColorMatrix in="SourceAlpha" type="matrix" values="0 0 0 0 0 0 0 0 0 0 0 0 0 0 0 0 0 0 127 0" result="hardAlpha"/>
<feOffset/>
<feGaussianBlur stdDeviation="7.5"/>
<feColorMatrix type="matrix" values="0 0 0 0 0.323144 0 0 0 0 0.512664 0 0 0 0 1 0 0 0 0.25 0"/>
<feBlend mode="normal" in2="BackgroundImageFix" result="effect1_dropShadow_9_326"/>
<feBlend mode="normal" in="SourceGraphic" in2="effect1_dropShadow_9_326" result="shape"/>
</filter>
<filter id="filter3_d_9_326" x="-44.5" y="55" width="416.5" height="419" filterUnits="userSpaceOnUse" color-interpolation-filters="sRGB">
<feFlood flood-opacity="0" result="BackgroundImageFix"/>
<feColorMatrix in="SourceAlpha" type="matrix" values="0 0 0 0 0 0 0 0 0 0 0 0 0 0 0 0 0 0 127 0" result="hardAlpha"/>
<feOffset dy="5"/>
<feGaussianBlur stdDeviation="22.5"/>
<feColorMatrix type="matrix" values="0 0 0 0 0.593724 0 0 0 0 0.684469 0 0 0 0 0.888646 0 0 0 0.1 0"/>
<feBlend mode="normal" in2="BackgroundImageFix" result="effect1_dropShadow_9_326"/>
<feBlend mode="normal" in="SourceGraphic" in2="effect1_dropShadow_9_326" result="shape"/>
</filter>
<filter id="filter4_d_9_326" x="1040" y="0" width="444.5" height="582" filterUnits="userSpaceOnUse" color-interpolation-filters="sRGB">
<feFlood flood-opacity="0" result="BackgroundImageFix"/>
<feColorMatrix in="SourceAlpha" type="matrix" values="0 0 0 0 0 0 0 0 0 0 0 0 0 0 0 0 0 0 127 0" result="hardAlpha"/>
<feOffset dy="5"/>
<feGaussianBlur stdDeviation="22.5"/>
<feColorMatrix type="matrix" values="0 0 0 0 0.593724 0 0 0 0 0.684469 0 0 0 0 0.888646 0 0 0 0.1 0"/>
<feBlend mode="normal" in2="BackgroundImageFix" result="effect1_dropShadow_9_326"/>
<feBlend mode="normal" in="SourceGraphic" in2="effect1_dropShadow_9_326" result="shape"/>
</filter>
<filter id="filter5_d_9_326" x="493" y="475" width="45" height="45" filterUnits="userSpaceOnUse" color-interpolation-filters="sRGB">
<feFlood flood-opacity="0" result="BackgroundImageFix"/>
<feColorMatrix in="SourceAlpha" type="matrix" values="0 0 0 0 0 0 0 0 0 0 0 0 0 0 0 0 0 0 127 0" result="hardAlpha"/>
<feOffset/>
<feGaussianBlur stdDeviation="7.5"/>
<feColorMatrix type="matrix" values="0 0 0 0 0.323144 0 0 0 0 0.512664 0 0 0 0 1 0 0 0 0.25 0"/>
<feBlend mode="normal" in2="BackgroundImageFix" result="effect1_dropShadow_9_326"/>
<feBlend mode="normal" in="SourceGraphic" in2="effect1_dropShadow_9_326" result="shape"/>
</filter>
<filter id="filter6_d_9_326" x="440" y="388" width="152" height="127.911" filterUnits="userSpaceOnUse" color-interpolation-filters="sRGB">
<feFlood flood-opacity="0" result="BackgroundImageFix"/>
<feColorMatrix in="SourceAlpha" type="matrix" values="0 0 0 0 0 0 0 0 0 0 0 0 0 0 0 0 0 0 127 0" result="hardAlpha"/>
<feOffset dy="10"/>
<feGaussianBlur stdDeviation="15"/>
<feColorMatrix type="matrix" values="0 0 0 0 0.894415 0 0 0 0 0.918495 0 0 0 0 0.984716 0 0 0 1 0"/>
<feBlend mode="normal" in2="BackgroundImageFix" result="effect1_dropShadow_9_326"/>
<feBlend mode="normal" in="SourceGraphic" in2="effect1_dropShadow_9_326" result="shape"/>
</filter>
<linearGradient id="paint0_linear_9_326" x1="720" y1="3" x2="720" y2="573" gradientUnits="userSpaceOnUse">
<stop stop-color="#F4F7FF"/>
<stop offset="1" stop-color="#F1F5FF"/>
</linearGradient>
<linearGradient id="paint1_linear_9_326" x1="278.466" y1="573.443" x2="278.466" y2="118.005" gradientUnits="userSpaceOnUse">
<stop stop-color="#4B71FF" stop-opacity="0"/>
<stop offset="1" stop-color="#6B89F8"/>
</linearGradient>
</defs>
</svg>
